# xmcd
#
# Track frame offsets: 
#        183
#        19858
#        37888
#
# Disc length: 892 seconds
#
# Revision: 2
# Processed by: cddbd v1.5.2PL0 Copyright (c) Steve Scherf et al.
# Submitted via: ExactAudioCopy v0.90b4
#
DISCID=18037a03
DTITLE=Tony Joe White - Tunica Motel (Single)
DYEAR=1991
DGENRE=Rock
TTITLE0=Tunica Motel
TTITLE1=Steamy Windows
TTITLE2=The Blues
EXTD=
EXTT0=
EXTT1=
EXTT2=
PLAYORDER=
